<svg width="276" height="276" viewBox="0 0 276 276" fill="none" xmlns="http://www.w3.org/2000/svg">
<circle cx="138" cy="138" r="138" fill="white"/>
<g clip-path="url(#clip0_550_65)">
<path fill-rule="evenodd" clip-rule="evenodd" d="M138.404 252.389C77.6982 252.389 28.4922 203.183 28.4922 142.478C28.4922 81.7724 77.6982 32.5664 138.404 32.5664C199.109 32.5664 248.315 81.7724 248.315 142.478C248.315 203.183 199.109 252.389 138.404 252.389ZM69.709 164.804V193.999L138.404 106.413L207.098 193.999V164.804L138.404 77.218L69.709 164.804ZM141.838 173.391C146.393 173.391 150.761 171.581 153.982 168.36C157.203 165.14 159.012 160.772 159.012 156.217C159.012 151.662 157.203 147.294 153.982 144.073C150.761 140.853 146.393 139.043 141.838 139.043C137.284 139.043 132.915 140.853 129.695 144.073C126.474 147.294 124.665 151.662 124.665 156.217C124.665 160.772 126.474 165.14 129.695 168.36C132.915 171.581 137.284 173.391 141.838 173.391Z" fill="#377CFC"/>
</g>
<defs>
<clipPath id="clip0_550_65">
<rect width="219.823" height="219.823" fill="white" transform="translate(28.4922 32.5664)"/>
</clipPath>
</defs>
</svg>
