<svg width="47" height="45" viewBox="0 0 47 45" fill="none" xmlns="http://www.w3.org/2000/svg">
<g clip-path="url(#clip0_1_67)">
<path d="M4.38464 37.177L0.207719 33.0462L10.9962 22.3847L0 11.5731L4.1654 7.44238L15.1731 18.2539L19.35 22.3847L15.1731 26.5155L4.38464 37.177Z" fill="white"/>
<path d="M42.2308 37.8351L46.3962 33.7043L34.95 22.3851L45.7269 11.7235L41.5616 7.59277L30.7731 18.2543L26.5962 22.3851L30.7731 26.5159L42.2308 37.8351Z" fill="white"/>
<path d="M37.9844 40.8697L33.8075 45.0004L22.9844 34.3389L12.1959 45.0004L7.98438 40.8697L18.7728 30.2081L22.9498 26.0889L27.1267 30.2081L37.9844 40.8697Z" fill="white"/>
<path d="M37.9844 4.13077L33.8075 0L22.9844 10.6615L12.1959 0L7.98438 4.13077L18.7728 14.7923L22.9498 18.9231L27.1267 14.7923L37.9844 4.13077Z" fill="white"/>
</g>
<defs>
<clipPath id="clip0_1_67">
<rect width="46.4077" height="45" fill="white"/>
</clipPath>
</defs>
</svg>
