<svg width="190" height="190" viewBox="0 0 190 190" fill="none" xmlns="http://www.w3.org/2000/svg">
<circle cx="95" cy="95" r="95" fill="#5865F2"/>
<g clip-path="url(#clip0_550_80)">
<path d="M129.531 27H60.4688C43.6413 27 30 40.6413 30 57.4688V126.531C30 143.359 43.6413 157 60.4688 157H129.531C146.359 157 160 143.359 160 126.531V57.4688C160 40.6413 146.359 27 129.531 27Z" fill="#5865F2"/>
<mask id="mask0_550_80" style="mask-type:luminance" maskUnits="userSpaceOnUse" x="44" y="52" width="102" height="80">
<path d="M44.2188 52.8984H145.781V131.574H44.2188V52.8984Z" fill="white"/>
</mask>
<g mask="url(#mask0_550_80)">
<path d="M130.195 59.9047C123.611 56.8821 116.662 54.7267 109.523 53.4925C109.458 53.4805 109.391 53.4893 109.331 53.5176C109.271 53.5458 109.222 53.5921 109.191 53.65C108.298 55.2374 107.309 57.3093 106.616 58.9373C98.8098 57.7683 91.0438 57.7683 83.3977 58.9373C82.705 57.2727 81.6803 55.2374 80.7835 53.65C80.7503 53.5933 80.7008 53.548 80.6415 53.5199C80.5821 53.4919 80.5157 53.4823 80.4509 53.4925C73.3111 54.7242 66.3619 56.8797 59.7783 59.9047C59.722 59.9286 59.6744 59.9694 59.6422 60.0215C46.4757 79.6921 42.8692 98.8793 44.6384 117.829C44.6433 117.875 44.6576 117.92 44.6802 117.961C44.7029 118.002 44.7336 118.038 44.7704 118.066C53.4571 124.446 61.872 128.319 70.1306 130.886C70.1948 130.905 70.2634 130.904 70.3271 130.884C70.3908 130.863 70.4466 130.823 70.4871 130.769C72.4406 128.101 74.1819 125.289 75.6754 122.331C75.696 122.29 75.7077 122.246 75.7098 122.2C75.712 122.155 75.7045 122.11 75.6878 122.067C75.6712 122.025 75.6458 121.987 75.6132 121.955C75.5807 121.923 75.5419 121.899 75.4992 121.883C72.7367 120.835 70.1067 119.558 67.5768 118.107C67.5307 118.08 67.492 118.042 67.4641 117.996C67.4362 117.951 67.42 117.899 67.4168 117.845C67.4137 117.792 67.4237 117.739 67.446 117.69C67.4683 117.642 67.5023 117.599 67.5448 117.567C68.0785 117.168 68.603 116.757 69.118 116.334C69.1631 116.297 69.2177 116.273 69.2757 116.265C69.3336 116.257 69.3926 116.265 69.4461 116.289C86.0678 123.878 104.062 123.878 120.487 116.289C120.541 116.264 120.601 116.254 120.66 116.261C120.718 116.268 120.774 116.292 120.82 116.33C121.335 116.755 121.861 117.168 122.397 117.567C122.44 117.599 122.474 117.641 122.497 117.689C122.519 117.738 122.53 117.791 122.527 117.844C122.524 117.898 122.508 117.95 122.481 117.995C122.453 118.041 122.415 118.08 122.369 118.107C119.838 119.585 117.186 120.847 114.443 121.879C114.4 121.895 114.362 121.921 114.329 121.953C114.297 121.985 114.272 122.024 114.256 122.066C114.239 122.109 114.232 122.155 114.235 122.2C114.238 122.246 114.25 122.29 114.271 122.331C115.79 125.265 117.523 128.084 119.454 130.765C119.494 130.82 119.549 130.861 119.613 130.883C119.677 130.905 119.746 130.906 119.811 130.886C128.11 128.319 136.525 124.446 145.212 118.066C145.249 118.039 145.28 118.004 145.303 117.964C145.325 117.924 145.339 117.879 145.344 117.833C147.461 95.9254 141.797 76.8951 130.327 60.0256C130.299 59.9707 130.252 59.9278 130.195 59.9047ZM78.1576 106.291C73.1531 106.291 69.0297 101.697 69.0297 96.0543C69.0297 90.412 73.0734 85.8179 78.1576 85.8179C83.2814 85.8179 87.3647 90.4527 87.2845 96.0543C87.2845 101.697 83.2418 106.291 78.1576 106.291ZM111.905 106.291C106.9 106.291 102.777 101.697 102.777 96.0543C102.777 90.412 106.821 85.8179 111.905 85.8179C117.029 85.8179 121.112 90.4527 121.032 96.0543C121.032 101.697 117.029 106.291 111.905 106.291Z" fill="white"/>
</g>
</g>
<defs>
<clipPath id="clip0_550_80">
<rect width="130" height="130" fill="white" transform="translate(30 27)"/>
</clipPath>
</defs>
</svg>
