<svg width="287" height="287" viewBox="0 0 287 287" fill="none" xmlns="http://www.w3.org/2000/svg">
<circle cx="143.5" cy="143.5" r="143.5" fill="white"/>
<g clip-path="url(#clip0_550_73)">
<path fill-rule="evenodd" clip-rule="evenodd" d="M218.726 59H69.2736C64.1496 59 60 63.1496 60 68.2736V217.726C60 222.85 64.1496 227 69.2736 227H149.729V161.942H127.838V136.591H149.729V117.884C149.729 96.1784 162.984 84.368 182.346 84.368C191.62 84.368 199.583 85.0568 201.91 85.3676V108.048H188.486C177.953 108.048 175.92 113.054 175.92 120.396V136.582H201.028L197.752 161.934H175.912V227H218.726C223.85 227 228 222.85 228 217.726V68.2736C228 63.1496 223.85 59 218.726 59Z" fill="#1C73F5"/>
</g>
<defs>
<clipPath id="clip0_550_73">
<rect width="168" height="168" fill="white" transform="translate(60 59)"/>
</clipPath>
</defs>
</svg>
