<svg width="263" height="263" viewBox="0 0 263 263" fill="none" xmlns="http://www.w3.org/2000/svg">
<circle cx="131.5" cy="131.5" r="131.5" fill="white"/>
<g clip-path="url(#clip0_550_70)">
<path d="M199.791 63.8921C179.215 51.0716 152.122 54.0993 127.966 69.2876C103.876 54.1076 76.7669 51.0716 56.2244 63.8921C23.7111 84.2118 19.7594 136.542 47.3969 180.77C67.7744 213.39 99.6441 232.489 127.999 232.134C156.371 232.489 188.233 213.382 208.61 180.77C236.223 136.542 232.304 84.2118 199.791 63.8921ZM62.3459 171.456C56.645 162.417 52.3448 152.568 49.5914 142.242C47.1417 133.281 46.2048 123.974 46.8194 114.704C48.0569 98.3688 54.7064 85.6308 65.5469 78.8576C76.3956 72.0761 90.7259 71.6801 105.997 77.7273C108.315 78.6596 110.584 79.7073 112.803 80.8788C104.317 88.6029 96.9373 97.4618 90.8744 107.205C74.0856 134.058 68.9706 163.948 74.8281 187.766C70.1605 182.725 65.9785 177.256 62.3376 171.431L62.3459 171.456ZM206.432 142.242C203.672 152.564 199.369 162.41 193.669 171.447C190.033 177.284 185.853 182.764 181.187 187.815C186.426 166.456 182.862 140.295 170.025 115.76C169.823 115.352 169.537 114.992 169.185 114.704C168.834 114.415 168.425 114.204 167.986 114.085C167.547 113.965 167.088 113.94 166.639 114.012C166.19 114.083 165.761 114.248 165.38 114.498L125.351 139.512C124.617 139.972 124.096 140.705 123.901 141.549C123.706 142.393 123.854 143.28 124.312 144.016L130.186 153.413C130.412 153.779 130.709 154.097 131.059 154.347C131.409 154.598 131.806 154.777 132.225 154.874C132.645 154.97 133.079 154.983 133.504 154.91C133.928 154.838 134.334 154.682 134.698 154.452L160.645 138.241C161.478 140.766 162.319 143.241 162.955 145.798C165.397 154.758 166.337 164.064 165.718 173.328C164.481 189.68 157.831 202.41 146.991 209.191C141.395 212.609 134.984 214.461 128.428 214.554H127.595C121.039 214.463 114.627 212.611 109.033 209.191C98.1921 202.41 91.5344 189.68 90.3051 173.328C89.6939 164.062 90.6278 154.758 93.0689 145.798C98.6944 125.07 110.318 106.466 126.481 92.3216C133.455 86.1987 141.398 81.2778 149.986 77.7603C165.207 71.7131 179.57 72.1091 190.411 78.8906C201.268 85.6721 207.917 98.4018 209.146 114.737C209.769 123.993 208.858 133.288 206.432 142.242Z" fill="#2571FE"/>
</g>
<defs>
<clipPath id="clip0_550_70">
<rect width="198" height="198" fill="white" transform="translate(29 45)"/>
</clipPath>
</defs>
</svg>
