<svg width="274" height="274" viewBox="0 0 274 274" fill="none" xmlns="http://www.w3.org/2000/svg">
<rect width="274" height="274" rx="137" fill="white"/>
<path d="M50 194.722L137.015 244.962L224.029 194.722V94.2414L137.015 44L50 94.2403V194.722Z" fill="#469EA2"/>
<path d="M128.106 56.0166L64.9174 92.4797C65.0209 93.6168 65.0209 94.7611 64.9174 95.8983L128.002 132.361C130.596 130.443 133.737 129.408 136.963 129.408C140.189 129.408 143.329 130.443 145.923 132.361L209.009 95.8983C208.905 94.7611 208.905 93.6168 209.009 92.4797L146.027 56.0166C143.433 57.9338 140.292 58.9684 137.066 58.9684C133.841 58.9684 130.7 57.9338 128.106 56.0166ZM215.12 105.946L151.931 142.824C152.274 146.022 151.596 149.247 149.996 152.037C148.397 154.828 145.956 157.041 143.023 158.362L143.126 230.875C144.147 231.325 145.119 231.88 146.027 232.531L209.112 196.068C208.769 192.87 209.446 189.645 211.046 186.855C212.646 184.064 215.087 181.851 218.02 180.53V107.604C217.011 107.13 216.041 106.576 215.12 105.946ZM58.9081 106.36C58.0016 107.012 57.0296 107.568 56.0078 108.019V180.945C58.9766 182.219 61.451 184.423 63.0578 187.226C64.6647 190.028 65.3169 193.277 64.9163 196.483L128.002 232.946C128.909 232.295 129.881 231.739 130.902 231.289V158.362C127.933 157.089 125.459 154.884 123.852 152.081C122.245 149.279 121.593 146.03 121.994 142.824L58.9081 106.36Z" fill="#6ACAD1"/>
<path d="M137.015 54.8773L214.81 99.8344V189.646L137.015 234.604L59.2191 189.646V99.7315L137.015 54.8773ZM137.015 44.208L50 94.4483V194.929L137.015 245.169L224.029 194.929V94.4483L137.015 44.208Z" fill="#469EA2"/>
<path d="M137.636 161.574H136.393C134.256 161.579 132.138 161.162 130.163 160.347C128.187 159.531 126.392 158.333 124.881 156.822C123.37 155.311 122.172 153.516 121.357 151.54C120.541 149.564 120.124 147.447 120.13 145.31V144.067C120.121 140.848 121.07 137.699 122.857 135.022C124.644 132.344 127.187 130.258 130.163 129.031C132.138 128.215 134.256 127.798 136.393 127.803H137.636C139.773 127.798 141.891 128.215 143.866 129.031C145.842 129.846 147.637 131.044 149.148 132.555C150.659 134.067 151.857 135.862 152.672 137.837C153.488 139.813 153.905 141.93 153.899 144.067V145.31C153.908 148.529 152.959 151.678 151.172 154.356C149.385 157.034 146.842 159.119 143.866 160.347C141.891 161.162 139.773 161.579 137.636 161.574ZM137.636 228.388H136.393C133.504 228.38 130.665 229.144 128.17 230.601C125.675 232.058 123.614 234.155 122.201 236.675L137.015 245.169L151.828 236.675C150.415 234.155 148.354 232.058 145.859 230.601C143.364 229.144 140.525 228.38 137.636 228.388ZM224.133 178.148H223.511C220.292 178.14 217.144 179.09 214.466 180.877C211.789 182.664 209.703 185.206 208.475 188.182C207.659 190.157 207.242 192.274 207.248 194.412V195.654C207.233 198.415 207.947 201.131 209.32 203.527L224.133 194.929V178.148ZM209.32 85.9543C207.96 88.3547 207.246 91.0671 207.248 93.8261V95.0695C207.242 97.2068 207.659 99.324 208.474 101.3C209.29 103.275 210.488 105.07 211.999 106.581C213.51 108.093 215.305 109.29 217.281 110.106C219.256 110.921 221.373 111.338 223.511 111.333H224.133V94.4483L209.32 85.9543ZM137.015 44.208L122.201 52.7021C123.607 55.2362 125.663 57.3497 128.158 58.8245C130.652 60.2993 133.495 61.0821 136.393 61.0923H137.636C140.526 61.1009 143.365 60.3371 145.86 58.8801C148.355 57.423 150.416 55.3256 151.828 52.8049L137.015 44.208ZM64.8129 85.8504L50 94.4483V111.333H50.6212C52.7585 111.338 54.8759 110.921 56.8516 110.106C58.8273 109.291 60.6224 108.093 62.1337 106.582C63.6451 105.071 64.8429 103.275 65.6583 101.3C66.4738 99.3242 66.8907 97.2069 66.8853 95.0695V93.8272C66.8501 91.0397 66.1389 88.3025 64.8129 85.8504ZM50.6212 178.148H50V194.929L64.8139 203.527C66.1736 201.126 66.8873 198.413 66.8853 195.654V194.412C66.8939 191.192 65.9444 188.044 64.1575 185.366C62.3706 182.688 59.8273 180.602 56.8513 179.375C54.8757 178.559 52.7585 178.142 50.6212 178.148Z" fill="#469EA2"/>
<path d="M137.015 245.687V145.103L50 94.8623V195.447L137.015 245.687Z" fill="#083B54" fill-opacity="0.15"/>
<path d="M224.131 194.515V94.0342L137.117 144.275V244.859L224.131 194.515Z" fill="#083B54" fill-opacity="0.05"/>
</svg>
