<svg width="280" height="280" viewBox="0 0 280 280" fill="none" xmlns="http://www.w3.org/2000/svg">
<circle cx="140" cy="140" r="140" fill="white"/>
<g clip-path="url(#clip0_550_67)">
<path d="M176.436 121.015H224.738C229.302 121.015 233.001 124.702 233.001 129.25V173.1C233.001 189.816 219.405 203.368 202.633 203.368H202.489C185.718 203.37 172.119 189.821 172.117 173.105V125.32C172.117 124.754 172.229 124.194 172.446 123.672C172.663 123.15 172.981 122.675 173.382 122.276C173.783 121.876 174.259 121.559 174.783 121.342C175.307 121.126 175.869 121.015 176.436 121.015Z" fill="#5059C9"/>
<path d="M209.082 112.346C219.89 112.346 228.652 103.614 228.652 92.8417C228.652 82.0695 219.89 73.3369 209.082 73.3369C198.274 73.3369 189.512 82.0695 189.512 92.8417C189.512 103.614 198.274 112.346 209.082 112.346Z" fill="#5059C9"/>
<path d="M148.197 112.347C163.809 112.347 176.465 99.7332 176.465 84.1734C176.465 68.6137 163.809 56 148.197 56C132.586 56 119.93 68.6137 119.93 84.1734C119.93 99.7332 132.586 112.347 148.197 112.347Z" fill="#7B83EB"/>
<path d="M185.888 121.015H106.157C101.648 121.126 98.081 124.856 98.1854 129.35V179.364C97.5558 206.333 118.964 228.713 146.022 229.374C173.081 228.713 194.489 206.333 193.86 179.364V129.35C193.964 124.856 190.398 121.126 185.888 121.015Z" fill="#7B83EB"/>
<path opacity="0.1" d="M150.373 121.015V191.101C150.362 192.673 149.886 194.207 149.004 195.51C148.122 196.813 146.874 197.828 145.415 198.426C144.465 198.827 143.445 199.033 142.414 199.033H102.013C101.447 197.602 100.926 196.172 100.49 194.699C98.9682 189.725 98.1916 184.555 98.1858 179.355V129.337C98.0814 124.85 101.642 121.126 106.144 121.015H150.372L150.373 121.015Z" fill="black"/>
<path opacity="0.2" d="M146.022 121.015V195.436C146.022 196.463 145.815 197.48 145.414 198.426C144.813 199.88 143.795 201.125 142.487 202.004C141.18 202.883 139.641 203.357 138.064 203.368H104.057C103.317 201.937 102.621 200.506 102.013 199.033C101.428 197.616 100.92 196.17 100.49 194.699C98.9682 189.725 98.1916 184.555 98.1858 179.355V129.337C98.0814 124.85 101.642 121.126 106.144 121.015H146.023L146.022 121.015Z" fill="black"/>
<path opacity="0.2" d="M146.023 121.015V186.767C145.99 191.134 142.446 194.666 138.064 194.699H100.49C98.9682 189.725 98.1916 184.555 98.1858 179.355V129.337C98.0814 124.85 101.642 121.126 106.144 121.015L146.023 121.015Z" fill="black"/>
<path opacity="0.2" d="M141.674 121.015V186.767C141.641 191.134 138.097 194.666 133.716 194.699H100.49C98.9682 189.725 98.1916 184.555 98.1858 179.355V129.337C98.0814 124.85 101.642 121.126 106.144 121.015L141.674 121.015Z" fill="black"/>
<path opacity="0.1" d="M150.374 98.6067V112.26C149.635 112.303 148.939 112.347 148.199 112.347C147.46 112.347 146.764 112.303 146.025 112.26C144.557 112.163 143.101 111.931 141.676 111.566C137.335 110.542 133.298 108.507 129.897 105.63C126.496 102.752 123.826 99.1127 122.106 95.0095C121.506 93.6116 121.04 92.1602 120.715 90.6748H142.416C146.804 90.6915 150.357 94.2327 150.374 98.6067Z" fill="black"/>
<path opacity="0.2" d="M146.023 102.941V112.26C144.555 112.163 143.1 111.931 141.675 111.567C137.333 110.542 133.297 108.507 129.896 105.63C126.494 102.752 123.825 99.1129 122.105 95.0098H138.065C142.453 95.0258 146.006 98.5677 146.023 102.941Z" fill="black"/>
<path opacity="0.2" d="M146.023 102.941V112.26C144.555 112.163 143.1 111.931 141.675 111.567C137.333 110.542 133.297 108.507 129.896 105.63C126.494 102.752 123.825 99.1129 122.105 95.0098H138.065C142.453 95.0258 146.006 98.5677 146.023 102.941Z" fill="black"/>
<path opacity="0.2" d="M141.675 102.941V111.566C137.334 110.542 133.297 108.507 129.896 105.629C126.495 102.752 123.825 99.1121 122.105 95.0088H133.717C138.106 95.0255 141.659 98.5674 141.675 102.941Z" fill="black"/>
<path d="M53.9716 95.0085H133.702C138.106 95.0085 141.675 98.5657 141.675 102.954V182.419C141.675 186.807 138.106 190.364 133.703 190.364H53.9716C49.5691 190.364 46 186.807 46 182.419V102.954C46 98.565 49.5691 95.0085 53.9716 95.0085Z" fill="url(#paint0_linear_550_67)"/>
<path d="M114.817 125.255H98.8779V168.511H88.7237V125.255H72.8594V116.863H114.817V125.255Z" fill="white"/>
</g>
<defs>
<linearGradient id="paint0_linear_550_67" x1="1708.06" y1="-525.762" x2="7920.25" y2="10269.3" gradientUnits="userSpaceOnUse">
<stop stop-color="#5A62C3"/>
<stop offset="0.5" stop-color="#4D55BD"/>
<stop offset="1" stop-color="#3940AB"/>
</linearGradient>
<clipPath id="clip0_550_67">
<rect width="187" height="174" fill="white" transform="translate(46 56)"/>
</clipPath>
</defs>
</svg>
