<svg width="53" height="47" viewBox="0 0 53 47" fill="none" xmlns="http://www.w3.org/2000/svg">
<g filter="url(#filter0_d_1_211)">
<path d="M24.6667 15.082C22.4739 14.1464 20.5443 13.5178 18.8778 13.1962C17.2405 12.8453 15.7347 12.6699 14.3606 12.6699C12.6064 12.6699 10.8375 13.1816 9.05403 14.2049C7.29979 15.2282 5.64788 16.4854 4.09831 17.9765V5.65297C5.64788 4.07415 7.35826 2.89004 9.22945 2.10064C11.1299 1.31123 13.2788 0.916526 15.6763 0.916526C17.4305 0.916526 19.1847 1.09195 20.939 1.4428C22.7225 1.76441 25.0761 2.50996 27.9998 3.67945C30.1926 4.61504 32.1369 5.25826 33.8326 5.60911C35.5284 5.93072 37.0487 6.09153 38.3936 6.09153C40.0602 6.09153 41.7852 5.57987 43.5686 4.55657C45.3814 3.53326 47.0479 2.27606 48.5682 0.784958V13.1085C47.0479 14.6873 45.3229 15.886 43.3932 16.7047C41.4928 17.4941 39.3585 17.8888 36.9903 17.8888C35.236 17.8888 33.4672 17.7133 31.6837 17.3625C29.9294 17.0117 27.5905 16.2515 24.6667 15.082ZM24.6667 35.2557C22.4739 34.3201 20.5443 33.6915 18.8778 33.3699C17.2405 33.0191 15.7347 32.8436 14.3606 32.8436C12.6064 32.8436 10.8375 33.3553 9.05403 34.3786C7.29979 35.4019 5.64788 36.6591 4.09831 38.1502V25.8267C5.64788 24.2479 7.35826 23.0638 9.22945 22.2744C11.1299 21.485 13.2788 21.0903 15.6763 21.0903C17.4305 21.0903 19.1847 21.2657 20.939 21.6165C22.7225 21.9381 25.0761 22.6837 27.9998 23.8532C30.1926 24.7888 32.1369 25.432 33.8326 25.7828C35.5284 26.1044 37.0487 26.2653 38.3936 26.2653C40.0602 26.2653 41.7852 25.7536 43.5686 24.7303C45.3814 23.707 47.0479 22.4498 48.5682 20.9587V33.2822C47.0479 34.861 45.3229 36.0597 43.3932 36.8784C41.4928 37.6678 39.3585 38.0625 36.9903 38.0625C35.236 38.0625 33.4672 37.8871 31.6837 37.5362C29.9294 37.1854 27.5905 36.4252 24.6667 35.2557Z" fill="#212121"/>
</g>
<defs>
<filter id="filter0_d_1_211" x="0.0982971" y="0.785156" width="52.4699" height="45.3652" filterUnits="userSpaceOnUse" color-interpolation-filters="sRGB">
<feFlood flood-opacity="0" result="BackgroundImageFix"/>
<feColorMatrix in="SourceAlpha" type="matrix" values="0 0 0 0 0 0 0 0 0 0 0 0 0 0 0 0 0 0 127 0" result="hardAlpha"/>
<feOffset dy="4"/>
<feGaussianBlur stdDeviation="2"/>
<feComposite in2="hardAlpha" operator="out"/>
<feColorMatrix type="matrix" values="0 0 0 0 0 0 0 0 0 0 0 0 0 0 0 0 0 0 0.25 0"/>
<feBlend mode="normal" in2="BackgroundImageFix" result="effect1_dropShadow_1_211"/>
<feBlend mode="normal" in="SourceGraphic" in2="effect1_dropShadow_1_211" result="shape"/>
</filter>
</defs>
</svg>
