<svg width="220" height="220" viewBox="0 0 220 220" fill="none" xmlns="http://www.w3.org/2000/svg">
<circle cx="110" cy="110" r="110" fill="black"/>
<path fill-rule="evenodd" clip-rule="evenodd" d="M95.9961 90.5019V84.7188C93.989 84.4345 91.965 84.287 89.9379 84.2773C65.1483 84.2773 44.9805 104.449 44.9805 129.238C44.9805 144.445 52.5803 157.906 64.1737 166.046C56.411 157.744 52.0953 146.801 52.1015 135.436C52.1015 110.999 71.6955 91.0724 95.9961 90.5019Z" fill="#00F2EA"/>
<path fill-rule="evenodd" clip-rule="evenodd" d="M97.057 155.967C108.117 155.967 117.14 147.169 117.551 136.203L117.588 38.3185H135.471C135.089 36.2747 134.896 34.2002 134.893 32.1211H110.471L110.43 130.009C110.022 140.971 100.996 149.766 89.9394 149.766C86.6198 149.768 83.3501 148.959 80.4141 147.41C82.3099 150.055 84.8081 152.21 87.7021 153.698C90.5962 155.186 93.8029 155.964 97.057 155.967ZM168.876 71.5433V66.1032C162.304 66.1093 155.873 64.1974 150.372 60.6019C155.195 66.1551 161.685 69.9943 168.876 71.5433Z" fill="#00F2EA"/>
<path fill-rule="evenodd" clip-rule="evenodd" d="M150.37 60.5989C144.978 54.4303 142.009 46.5148 142.013 38.3223H135.469C136.316 42.8504 138.074 47.1595 140.635 50.9886C143.196 54.8177 146.508 58.0872 150.37 60.5989ZM89.9375 108.704C84.4942 108.711 79.2756 110.876 75.4267 114.725C71.5777 118.574 69.4125 123.792 69.4062 129.236C69.4099 132.98 70.4367 136.652 72.3759 139.855C74.315 143.059 77.0927 145.671 80.4087 147.41C77.8839 143.928 76.5242 139.737 76.5239 135.436C76.5293 129.992 78.694 124.773 82.5431 120.923C86.3922 117.074 91.6113 114.908 97.0551 114.902C99.1707 114.902 101.198 115.251 103.113 115.853V90.9169C101.106 90.6327 99.0822 90.4852 97.0551 90.4755C96.6986 90.4755 96.3488 90.4959 95.9956 90.5026V109.655C94.0365 109.032 91.9935 108.711 89.9375 108.704Z" fill="#FF004F"/>
<path fill-rule="evenodd" clip-rule="evenodd" d="M168.872 71.5434V90.5261C156.206 90.5261 144.473 86.4749 134.89 79.5983V129.235C134.89 154.025 114.726 174.193 89.9361 174.193C80.3564 174.193 71.4729 171.17 64.1719 166.043C68.3695 170.569 73.4568 174.18 79.115 176.649C84.7732 179.118 90.8803 180.392 97.0537 180.39C121.843 180.39 142.011 160.222 142.011 135.436V85.7991C151.911 92.9179 163.8 96.741 175.993 96.7269V72.2973C173.548 72.2973 171.171 72.0358 168.872 71.5434Z" fill="#FF004F"/>
<path fill-rule="evenodd" clip-rule="evenodd" d="M134.892 129.236V79.5986C144.791 86.7182 156.68 90.5414 168.874 90.5264V71.5437C161.685 69.9931 155.192 66.1528 150.37 60.5989C146.508 58.0872 143.197 54.8177 140.635 50.9886C138.074 47.1595 136.317 42.8504 135.469 38.3223H117.587L117.549 136.207C117.139 147.169 108.116 155.968 97.0556 155.968C93.8015 155.964 90.5949 155.186 87.7009 153.698C84.8069 152.21 82.3086 150.055 80.4126 147.41C77.096 145.671 74.3176 143.059 72.3778 139.856C70.438 136.653 69.4107 132.98 69.4067 129.236C69.413 123.792 71.5781 118.574 75.4271 114.725C79.2761 110.876 84.4947 108.711 89.9379 108.704C92.0501 108.704 94.0775 109.051 95.9961 109.655V90.5026C71.6955 91.0731 52.1016 111 52.1016 135.436C52.1016 147.254 56.6927 158.012 64.1738 166.046C71.7154 171.355 80.715 174.201 89.9379 174.193C114.728 174.193 134.892 154.025 134.892 129.236Z" fill="white"/>
</svg>
