<svg width="297" height="297" viewBox="0 0 297 297" fill="none" xmlns="http://www.w3.org/2000/svg">
<circle cx="148.5" cy="148.5" r="148.5" fill="white"/>
<path d="M264.773 90.9153L235.196 120.388C229.32 188.832 171.537 242 102.491 242C88.2905 242 76.5381 239.748 67.6258 235.342C60.4764 231.719 57.5383 227.9 56.7548 226.725C56.1066 225.741 55.6889 224.623 55.5328 223.455C55.3767 222.286 55.4863 221.098 55.8535 219.978C56.2206 218.858 56.8358 217.835 57.6532 216.986C58.4706 216.137 59.4691 215.483 60.5744 215.073C60.7702 214.975 83.8833 206.163 98.8677 189.223C89.5748 182.608 81.407 174.541 74.6773 165.332C61.2599 147.119 47.0591 115.492 55.5796 68.2967C55.8474 66.8936 56.4893 65.5889 57.4374 64.5203C58.3855 63.4518 59.6047 62.6591 60.9661 62.2259C62.3319 61.7788 63.7943 61.7158 65.1935 62.044C66.5926 62.3721 67.8745 63.0786 68.899 64.0863C69.1928 64.4779 101.806 96.5945 141.666 106.974V101.001C141.705 94.79 142.966 88.6477 145.379 82.9245C147.792 77.2013 151.309 72.0092 155.728 67.6449C160.148 63.2805 165.385 59.8293 171.139 57.4883C176.893 55.1472 183.051 53.9622 189.263 54.0009C197.417 54.1172 205.4 56.3429 212.437 60.4612C219.474 64.5796 225.324 70.4501 229.418 77.5008H259.19C260.737 77.496 262.251 77.949 263.54 78.8028C264.83 79.6566 265.838 80.873 266.438 82.2987C267.002 83.7456 267.145 85.3227 266.851 86.8476C266.556 88.3724 265.836 89.7827 264.773 90.9153Z" fill="#4083FF"/>
</svg>
