<svg width="245" height="245" viewBox="0 0 245 245" fill="none" xmlns="http://www.w3.org/2000/svg">
<circle cx="122.5" cy="122.5" r="122.5" fill="white"/>
<path d="M85.3342 120.845C85.3342 130.854 89.3101 140.452 96.3873 147.53C103.464 154.607 113.063 158.583 123.072 158.583C133.081 158.583 142.679 154.607 149.757 147.53C156.834 140.452 160.81 130.854 160.81 120.845L160.806 50.9619C176.64 59.3812 189.203 72.854 196.496 89.2366C203.79 105.619 205.396 123.971 201.057 141.371C196.718 158.771 186.685 174.22 172.554 185.261C158.423 196.301 141.005 202.299 123.072 202.299C105.139 202.299 87.7212 196.301 73.5899 185.261C59.4585 174.22 49.4254 158.771 45.0869 141.371C40.7483 123.971 42.3537 105.619 49.6474 89.2366C56.9411 72.854 69.5042 59.3812 85.3379 50.9619L85.3342 120.845Z" stroke="#699BF7" stroke-width="8" stroke-linecap="round" stroke-linejoin="round"/>
<path d="M129.429 50.9619V122.852C129.429 124.538 128.759 126.154 127.567 127.346C126.376 128.538 124.759 129.207 123.074 129.207C121.388 129.207 119.772 128.538 118.58 127.346C117.388 126.154 116.719 124.538 116.719 122.852V50.9619" stroke="#699BF7" stroke-width="8" stroke-linecap="round" stroke-linejoin="round"/>
</svg>
