<svg width="24" height="24" viewBox="0 0 24 24" fill="none" xmlns="http://www.w3.org/2000/svg">
<path d="M13.4124 6.93954H10.5898L9.46094 4.13672L13.4124 6.93954Z" fill="#F78419" stroke="#F78419"/>
<path d="M9.46094 4.13672H14.5412L13.4124 6.93954L9.46094 4.13672Z" fill="#F78419" stroke="#F78419"/>
<path d="M10.5879 6.93982L3.42188 1.54688L9.45905 4.137L10.5879 6.93982Z" fill="#E47719" stroke="#E47719"/>
<path d="M20.5801 1.54688L13.4141 6.93982L14.5429 4.137L20.5801 1.54688Z" fill="#E17719" stroke="#E17719"/>
<path d="M6.36315 9.13801L3.14246 8.33902L2.96094 7.58105L6.36315 9.13801Z" fill="#773900" stroke="#773900"/>
<path d="M17.6406 9.13801L21.0428 7.58105L20.8613 8.33902L17.6406 9.13801Z" fill="#773900" stroke="#773900"/>
<path d="M3.72656 10.5552L6.36316 9.1377L7.75235 9.42239L3.72656 10.5552Z" fill="#773900" stroke="#773900"/>
<path d="M20.2758 10.5552L16.25 9.42239L17.6392 9.1377L20.2758 10.5552Z" fill="#773900" stroke="#773900"/>
<path d="M3.25781 9.24885L6.35809 9.1377L3.72149 10.5552L3.25781 9.24885Z" fill="#773900" stroke="#773900"/>
<path d="M3.26104 9.24901L3.14062 8.33887L6.36132 9.13786L3.26104 9.24901Z" fill="#773900" stroke="#773900"/>
<path d="M20.7409 9.24885L20.2772 10.5552L17.6406 9.1377L20.7409 9.24885Z" fill="#773900" stroke="#773900"/>
<path d="M20.7409 9.24901L17.6406 9.13786L20.8613 8.33887L20.7409 9.24901Z" fill="#773900" stroke="#773900"/>
<path d="M6.48606 5.09277L6.36315 9.13749L2.96094 7.58054L6.48606 5.09277Z" fill="#773900" stroke="#773900"/>
<path d="M7.74856 9.42219L6.35938 9.13749L6.48228 5.09277L7.74856 9.42219Z" fill="#773900" stroke="#773900"/>
<path d="M21.0407 7.58054L17.6385 9.13749L17.5156 5.09277L21.0407 7.58054Z" fill="#773900" stroke="#773900"/>
<path d="M17.5163 5.09277L17.6392 9.13749L16.25 9.42219L17.5163 5.09277Z" fill="#773900" stroke="#773900"/>
<path d="M7.88733 17.7429L3.41671 19.2678L2.27344 14.835L7.88733 17.7429Z" fill="#E47719" stroke="#E47719"/>
<path d="M21.7311 14.835L20.5878 19.2678L16.1172 17.7429L21.7311 14.835Z" fill="#E47719" stroke="#E47719"/>
<path d="M6.48438 5.09277L10.5897 6.93951L7.75065 9.42219L6.48438 5.09277Z" fill="#773900" stroke="#773900"/>
<path d="M16.2531 9.42219L13.4141 6.93951L17.5194 5.09277L16.2531 9.42219Z" fill="#773900" stroke="#773900"/>
<path d="M2.53906 7.86275L2.95509 7.58105L3.13661 8.33902L2.53906 7.86275Z" fill="#773900" stroke="#773900"/>
<path d="M21.4569 7.86275L20.8594 8.33902L21.0409 7.58105L21.4569 7.86275Z" fill="#773900" stroke="#773900"/>
<path d="M6.52116 10.9584L2.27344 14.835L3.72607 10.5557L6.52116 10.9584Z" fill="#F78419" stroke="#F78419"/>
<path d="M17.4844 10.9584L20.2795 10.5557L21.7321 14.835L17.4844 10.9584Z" fill="#F78419" stroke="#F78419"/>
<path d="M3.26352 9.24901L2.67188 8.67982L3.1431 8.33887L3.26352 9.24901Z" fill="#773900" stroke="#773900"/>
<path d="M20.7422 9.24901L20.8626 8.33887L21.3338 8.67982L20.7422 9.24901Z" fill="#773900" stroke="#773900"/>
<path d="M2.27344 14.8347L5.87717 14.4678L7.88733 17.7427L2.27344 14.8347Z" fill="#E47719" stroke="#E47719"/>
<path d="M16.1172 17.7427L18.1273 14.4678L21.7311 14.8347L16.1172 17.7427Z" fill="#E47719" stroke="#E47719"/>
<path d="M5.87717 14.4676L2.27344 14.8346L6.52116 10.958L5.87717 14.4676Z" fill="#F78419" stroke="#F78419"/>
<path d="M17.4844 10.958L21.7321 14.8346L18.1284 14.4676L17.4844 10.958Z" fill="#F78419" stroke="#F78419"/>
<path d="M3.72412 10.5554L2.875 9.50846L3.26044 9.24902L3.72412 10.5554Z" fill="#773900" stroke="#773900"/>
<path d="M20.2734 10.5554L20.7371 9.24902L21.1226 9.50846L20.2734 10.5554Z" fill="#773900" stroke="#773900"/>
<path d="M2.95977 7.58085L2.40625 4.44531L6.48489 5.09308L2.95977 7.58085Z" fill="#773900" stroke="#773900"/>
<path d="M17.5156 5.09308L21.5943 4.44531L21.0407 7.58085L17.5156 5.09308Z" fill="#773900" stroke="#773900"/>
<path d="M3.72656 10.5557L7.75235 9.42285L6.52165 10.9584L3.72656 10.5557Z" fill="#F78419" stroke="#F78419"/>
<path d="M20.2758 10.5557L17.4807 10.9584L16.25 9.42285L20.2758 10.5557Z" fill="#F78419" stroke="#F78419"/>
<path d="M7.75 9.42213L10.589 6.93945L10.8292 11.0314L7.75 9.42213Z" fill="#E47719" stroke="#E47719"/>
<path d="M10.8255 11.0322L6.51562 10.9584L7.74632 9.42285L10.8255 11.0322Z" fill="#E47719" stroke="#E47719"/>
<path d="M16.251 9.42285L17.4817 10.9584L13.1719 11.0322L16.251 9.42285Z" fill="#E47719" stroke="#E47719"/>
<path d="M13.1719 11.0314L13.412 6.93945L16.251 9.42213L13.1719 11.0314Z" fill="#E47719" stroke="#E47719"/>
<path d="M3.42188 1.54688L10.5879 6.93982L6.48256 5.09308L3.42188 1.54688Z" fill="#773900" stroke="#773900"/>
<path d="M20.5763 1.54688L21.5943 4.44531L17.5156 5.09308L20.5763 1.54688Z" fill="#773900" stroke="#773900"/>
<path d="M6.48489 5.09308L2.40625 4.44531L3.4242 1.54688L6.48489 5.09308Z" fill="#773900" stroke="#773900"/>
<path d="M17.5194 5.09308L13.4141 6.93982L20.5801 1.54688L17.5194 5.09308Z" fill="#773900" stroke="#773900"/>
<path d="M10.5859 6.93945H13.4086L13.1684 11.0314L10.5859 6.93945Z" fill="#F78419" stroke="#F78419"/>
<path d="M13.1684 11.0314H10.8261L10.5859 6.93945L13.1684 11.0314Z" fill="#F78419" stroke="#F78419"/>
<path d="M7.88516 17.7425L5.875 14.4677L8.28853 14.3965L7.88516 17.7425Z" fill="#CD6200" stroke="#CD6200"/>
<path d="M16.1143 17.7425L15.7109 14.3965L18.1245 14.4677L16.1143 17.7425Z" fill="#CD6200" stroke="#CD6200"/>
<path d="M8.23949 12.6538L6.51562 10.958L10.8255 11.0317L8.23949 12.6538Z" fill="#CD6200" stroke="#CD6200"/>
<path d="M13.1719 11.0317L17.4817 10.958L15.7579 12.6538L13.1719 11.0317Z" fill="#CD6200" stroke="#CD6200"/>
<path d="M6.51562 10.958L8.23949 12.6538L8.28516 14.3965L6.51562 10.958Z" fill="#E47424" stroke="#E47424"/>
<path d="M17.4805 10.958L15.7109 14.3965L15.7566 12.6538L17.4805 10.958Z" fill="#E47424" stroke="#E47424"/>
<path d="M6.51899 10.958L8.28853 14.3965L5.875 14.4676L6.51899 10.958Z" fill="#F78419" stroke="#F78419"/>
<path d="M18.1245 14.4676L15.7109 14.3965L17.4805 10.958L18.1245 14.4676Z" fill="#F78419" stroke="#F78419"/>
<path d="M8.73724 18.2943L7.88281 17.7422L10.348 18.2153L8.73724 18.2943Z" fill="#C0AC9D" stroke="#C0AC9D"/>
<path d="M13.6484 18.2153L16.1136 17.7422L15.2592 18.2943L13.6484 18.2153Z" fill="#C0AC9D" stroke="#C0AC9D"/>
<path d="M10.3311 17.3262L10.348 18.2161L7.88281 17.743L10.3311 17.3262Z" fill="#D6C2B2" stroke="#D6C2B2"/>
<path d="M13.6653 17.3262L16.1136 17.743L13.6484 18.2161L13.6653 17.3262Z" fill="#D6C2B2" stroke="#D6C2B2"/>
<path d="M7.88281 17.7422L10.5448 15.5479L10.3311 17.3254L7.88281 17.7422Z" fill="#D6C2B2" stroke="#D6C2B2"/>
<path d="M16.1151 17.7422L13.6668 17.3254L13.4531 15.5479L16.1151 17.7422Z" fill="#D6C2B2" stroke="#D6C2B2"/>
<path d="M10.5448 15.5482L7.88281 17.7425L8.28618 14.3965L10.5448 15.5482Z" fill="#E47719" stroke="#E47719"/>
<path d="M13.4531 15.5482L15.7117 14.3965L16.1151 17.7425L13.4531 15.5482Z" fill="#E47719" stroke="#E47719"/>
<path d="M10.8282 11.0322L9.78636 11.9384L8.24219 12.6543L10.8282 11.0322Z" fill="#CD6200" stroke="#CD6200"/>
<path d="M15.7579 12.6543L14.2137 11.9384L13.1719 11.0322L15.7579 12.6543Z" fill="#CD6200" stroke="#CD6200"/>
<path d="M10.4212 13.2173L8.24219 12.6544L9.78636 11.9385L10.4212 13.2173Z" fill="#243343" stroke="#243343"/>
<path d="M13.5781 13.2173L14.213 11.9385L15.7572 12.6544L13.5781 13.2173Z" fill="#243343" stroke="#243343"/>
<path d="M8.28786 14.3969L8.24219 12.6543L10.4212 13.2172L8.28786 14.3969Z" fill="#F78419" stroke="#F78419"/>
<path d="M15.7115 14.3969L13.5781 13.2172L15.7572 12.6543L15.7115 14.3969Z" fill="#F78419" stroke="#F78419"/>
<path d="M9.78906 11.9384L10.8309 11.0322L10.4239 13.2172L9.78906 11.9384Z" fill="#CD6200" stroke="#CD6200"/>
<path d="M14.2137 11.9384L13.5788 13.2172L13.1719 11.0322L14.2137 11.9384Z" fill="#CD6200" stroke="#CD6200"/>
<path d="M10.4219 13.2172L10.8288 11.0322L10.923 12.3241L10.4219 13.2172Z" fill="#E47424" stroke="#E47424"/>
<path d="M10.9223 12.3241L10.8281 11.0322H13.1705L10.9223 12.3241Z" fill="#F78419" stroke="#F78419"/>
<path d="M13.1701 11.0322L13.0759 12.3241H10.9219L13.1701 11.0322Z" fill="#F78419" stroke="#F78419"/>
<path d="M13.5792 13.2172L13.0781 12.3241L13.1723 11.0322L13.5792 13.2172Z" fill="#E17719" stroke="#E17719"/>
<path d="M10.3529 18.2158L10.4973 18.9492L8.74219 18.2948L10.3529 18.2158Z" fill="#C0AC9D" stroke="#C0AC9D"/>
<path d="M15.263 18.2948L13.5078 18.9492L13.6522 18.2158L15.263 18.2948Z" fill="#C0AC9D" stroke="#C0AC9D"/>
<path d="M10.5476 15.5482L8.28906 14.3965L10.4224 13.2168L10.5476 15.5482Z" fill="#F78419" stroke="#F78419"/>
<path d="M13.5783 13.2168L15.7117 14.3965L13.4531 15.5482L13.5783 13.2168Z" fill="#F78419" stroke="#F78419"/>
<path d="M10.923 12.3232L10.922 15.2866L10.4219 13.2164L10.923 12.3232Z" fill="#E47424" stroke="#E47424"/>
<path d="M13.0781 12.3232L13.5792 13.2164L13.0791 15.2866L13.0781 12.3232Z" fill="#E47424" stroke="#E47424"/>
<path d="M10.4219 13.2168L10.922 15.2871L10.5471 15.5482L10.4219 13.2168Z" fill="#F78419" stroke="#F78419"/>
<path d="M13.453 15.5482L13.0781 15.2871L13.5782 13.2168L13.453 15.5482Z" fill="#F78419" stroke="#F78419"/>
<path d="M10.9219 12.3232H13.0759L13.0769 15.2866L10.9219 12.3232Z" fill="#F78419" stroke="#F78419"/>
<path d="M13.0779 15.2866H10.9219L10.9229 12.3232L13.0779 15.2866Z" fill="#F78419" stroke="#F78419"/>
<path d="M10.4972 18.9495L10.3528 18.2161L10.3359 17.3262L10.4972 18.9495Z" fill="#C0AC9D" stroke="#C0AC9D"/>
<path d="M13.6691 17.3262L13.6522 18.2161L13.5078 18.9495L13.6691 17.3262Z" fill="#C0AC9D" stroke="#C0AC9D"/>
<path d="M10.3359 17.3256L10.5294 17.0771L10.4972 18.949L10.3359 17.3256Z" fill="#C0AC9D" stroke="#C0AC9D"/>
<path d="M10.4922 18.949L10.5244 17.0771H13.4706L10.4922 18.949Z" fill="#C0AC9D" stroke="#C0AC9D"/>
<path d="M13.4706 17.0771L13.5028 18.949H10.4922L13.4706 17.0771Z" fill="#C0AC9D" stroke="#C0AC9D"/>
<path d="M13.5088 18.949L13.4766 17.0771L13.67 17.3256L13.5088 18.949Z" fill="#C0AC9D" stroke="#C0AC9D"/>
<path d="M10.5294 17.0769L10.3359 17.3254L10.5496 15.5479L10.5294 17.0769Z" fill="black" stroke="black"/>
<path d="M13.4531 15.5479L13.6668 17.3254L13.4733 17.0769L13.4531 15.5479Z" fill="black" stroke="black"/>
<path d="M10.8984 15.5084L10.9189 15.2871H13.0749L10.8984 15.5084Z" fill="black" stroke="black"/>
<path d="M13.0749 15.2871L13.0954 15.5084H10.8984L13.0749 15.2871Z" fill="black" stroke="black"/>
<path d="M10.5469 15.5483L10.9218 15.2871L10.9013 15.5084L10.5469 15.5483Z" fill="black" stroke="black"/>
<path d="M13.0986 15.5084L13.0781 15.2871L13.453 15.5483L13.0986 15.5084Z" fill="black" stroke="black"/>
<path d="M10.5436 15.5479L10.6582 15.7787L10.5234 17.0769L10.5436 15.5479Z" fill="black" stroke="black"/>
<path d="M10.9013 15.5088L10.6614 15.7796L10.5469 15.5487L10.9013 15.5088Z" fill="black" stroke="black"/>
<path d="M13.4707 17.0769L13.3359 15.7787L13.4505 15.5479L13.4707 17.0769Z" fill="black" stroke="black"/>
<path d="M13.456 15.5487L13.3414 15.7796L13.1016 15.5088L13.456 15.5487Z" fill="black" stroke="black"/>
<path d="M10.6641 15.7793H13.3408L13.4755 17.0774L10.6641 15.7793Z" fill="black" stroke="black"/>
<path d="M13.4697 17.0774H10.5234L10.6582 15.7793L13.4697 17.0774Z" fill="black" stroke="black"/>
<path d="M13.1009 15.5088L13.3408 15.7796H10.6641L13.1009 15.5088Z" fill="black" stroke="black"/>
<path d="M10.6641 15.7796L10.9039 15.5088H13.1009L10.6641 15.7796Z" fill="black" stroke="black"/>
</svg>
