<svg width="22" height="22" viewBox="0 0 22 22" fill="none" xmlns="http://www.w3.org/2000/svg">
<path d="M8 13C8 14.1046 8.89543 15 10 15H12.2566C13.2194 15 14 14.2194 14 13.2566C14 12.5062 13.5198 11.8399 12.8079 11.6026L9.1921 10.3974C8.48019 10.1601 8 9.49384 8 8.74342C8 7.78055 8.78055 7 9.74342 7H12C13.1046 7 14 7.89543 14 9M11 5.5V16.5M21 11V11C21 5.47715 16.5228 1 11 1V1C5.47715 1 1 5.47715 1 11V11C1 16.5228 5.47715 21 11 21V21C16.5228 21 21 16.5228 21 11Z" stroke="#D0BB00" stroke-width="1.5" stroke-linecap="round" stroke-linejoin="round"/>
</svg>
