<svg width="24" height="20" viewBox="0 0 24 20" fill="none" xmlns="http://www.w3.org/2000/svg">
<path d="M21.0586 5.18078C21.0678 5.39198 21.0679 5.59358 21.0679 5.80478C21.0771 12.208 16.3726 19.6 7.76939 19.6C5.23194 19.6 2.7408 18.8416 0.601562 17.4208C0.971993 17.4688 1.34242 17.488 1.71285 17.488C3.81505 17.488 5.86168 16.7584 7.51935 15.4048C5.51903 15.3664 3.75948 14.0128 3.14827 12.0352C3.85209 12.1792 4.57443 12.1504 5.25973 11.9488C3.08345 11.5072 1.51838 9.51999 1.50912 7.20639C1.50912 7.18719 1.50912 7.16799 1.50912 7.14879C2.15737 7.52319 2.88897 7.73439 3.62983 7.75359C1.5832 6.33278 0.944211 3.50077 2.18515 1.28317C4.56517 4.31678 8.06574 6.15038 11.8256 6.35198C11.4459 4.67198 11.9645 2.90557 13.1777 1.71517C15.0576 -0.118439 18.0211 -0.0224385 19.7991 1.92637C20.8456 1.71517 21.855 1.31197 22.7718 0.745564C22.4199 1.86877 21.6883 2.81917 20.7159 3.42397C21.642 3.30877 22.5496 3.04957 23.4016 2.66557C22.7718 3.64477 21.9754 4.48958 21.0586 5.18078Z" fill="#1D9BF0"/>
</svg>
