<svg width="16" height="17" viewBox="0 0 16 17" fill="none" xmlns="http://www.w3.org/2000/svg">
<g clip-path="url(#clip0_217_17563)">
<path d="M3.33203 9.21351C5.06688 10.1378 6.87716 11.1054 8.27534 11.854L13.1782 9.21351C11.4029 11.8594 9.92379 14.0622 8.27534 16.5C6.62395 14.0675 4.80021 11.3835 3.33203 9.21351ZM3.52059 8.48368L8.2807 5.93534L12.9788 8.46505L8.28338 11.0162L3.52059 8.48368ZM8.27534 5.11889L3.33203 7.72971L8.25377 0.5L13.1782 7.7459L8.27534 5.11889Z" fill="white"/>
<path d="M8.27547 11.854L13.1783 9.21351C11.4031 11.8594 8.27547 16.5 8.27547 16.5V11.854ZM8.28084 5.93534L12.979 8.46505L8.28351 11.0162L8.28084 5.93534ZM8.27547 5.11908L8.25391 0.5L13.1783 7.7459L8.27547 5.11908Z" fill="white"/>
<path d="M3.51953 8.48385L8.27989 8.87578L12.978 8.46765L8.28231 11.019L3.51953 8.48385Z" fill="white"/>
<path d="M8.28125 8.87566L12.9794 8.46753L8.28393 11.0189L8.28125 8.87566Z" fill="white"/>
</g>
<defs>
<clipPath id="clip0_217_17563">
<rect width="16" height="16" fill="white" transform="translate(0 0.5)"/>
</clipPath>
</defs>
</svg>
