<svg width="30" height="8" viewBox="0 0 30 8" fill="none" xmlns="http://www.w3.org/2000/svg">
<path d="M7.46196 3.81008L11.321 0.55418L9.53661 0.556569H9.03855C8.56558 0.561346 8.15709 0.70945 7.81311 1.00088L5.89612 2.62764L3.97913 1.00327C3.62798 0.707062 3.2195 0.561346 2.75369 0.561346H1.24876C0.990776 0.561346 0.865366 0.63301 0.865366 0.776336C0.865366 0.847999 0.91553 0.92444 1.01228 1.00566L4.34103 3.81247L0.818785 6.81754C0.722039 6.90115 0.671875 6.97759 0.671875 7.04686C0.70054 7.1878 0.833117 7.25708 1.06602 7.25708H2.55662C3.02243 7.25708 3.43091 7.11136 3.77489 6.81754L5.90687 4.99969L8.04602 6.81277C8.39358 7.1042 8.79848 7.24991 9.26429 7.24991L11.5253 7.24752L7.46196 3.81008ZM27.0511 7.23558L28.6062 5.91459L24.783 5.91698C23.5288 5.91698 22.6725 5.76648 22.221 5.46072C21.7695 5.15496 21.5402 4.6342 21.5402 3.89607C21.5366 3.15794 21.7624 2.6348 22.2174 2.32665C22.6725 2.0185 23.5253 1.86562 24.7794 1.86562L28.7997 1.86323L27.2303 0.542236L24.697 0.544625C22.6725 0.547014 21.1998 0.816945 20.2789 1.35681C19.8597 1.60285 19.5408 1.91578 19.3115 2.29082C19.5659 2.74707 19.6913 3.28216 19.6949 3.89607C19.6985 4.50999 19.5695 5.04507 19.3186 5.50133C19.548 5.87398 19.8669 6.18691 20.2897 6.43295C21.2141 6.97042 22.6868 7.23797 24.7113 7.23797L27.0511 7.23558ZM19.0821 2.75663C19.0248 2.59897 18.946 2.4437 18.8528 2.29082C18.6235 1.91817 18.3046 1.60285 17.8818 1.3592C16.9609 0.819334 15.4847 0.549403 13.4602 0.551791L11.8585 0.55418L10.2927 1.87517L13.3849 1.87278C14.639 1.87278 15.4954 2.02328 15.9469 2.33143C16.4019 2.63719 16.6277 3.16033 16.6277 3.89846C16.6277 4.63659 16.4055 5.15973 15.9505 5.4655C15.4954 5.77126 14.6462 5.92414 13.3921 5.92414L10.5005 5.92653L12.0592 7.24513H13.4709C15.4954 7.24274 16.9681 6.97281 17.8925 6.43534C18.3118 6.1893 18.6307 5.87637 18.86 5.50372C18.9532 5.35322 19.0284 5.19795 19.0857 5.03791C19.2147 4.66287 19.2756 4.28067 19.2721 3.89846C19.2756 3.51387 19.2111 3.13167 19.0821 2.75663Z" fill="white"/>
<path d="M8.01953 3.81493L10.0261 5.51095L10.0189 2.1189L8.01953 3.81493Z" fill="white"/>
</svg>
