<svg width="16" height="16" viewBox="0 0 16 16" fill="none" xmlns="http://www.w3.org/2000/svg">
<g clip-path="url(#clip0_217_17609)">
<path d="M13.6581 0H15.9706L11.1581 5.75396C9.41531 7.8366 6.58969 7.8366 4.84562 5.75396L0.03125 0H2.34562L6.00187 4.37094C6.53459 5.00495 7.25251 5.36035 8.00047 5.36035C8.74843 5.36035 9.46635 5.00495 9.99906 4.37094L13.6581 0Z" fill="#23292F"/>
<path d="M2.31406 16H0L4.84375 10.2105C6.58656 8.1279 9.41219 8.1279 11.1562 10.2105L16 16H13.6875L10 11.5936C9.46729 10.9596 8.74937 10.6041 8.00141 10.6041C7.25345 10.6041 6.53553 10.9596 6.00281 11.5936L2.31406 16Z" fill="#23292F"/>
</g>
<defs>
<clipPath id="clip0_217_17609">
<rect width="16" height="16" fill="white"/>
</clipPath>
</defs>
</svg>
