<svg width="16" height="16" viewBox="0 0 16 16" fill="none" xmlns="http://www.w3.org/2000/svg">
<g clip-path="url(#clip0_217_17602)">
<path d="M4.38461 7.94226C4.35048 8.58411 4.80701 9.1336 5.40008 9.17054C5.42141 9.17054 5.44274 9.17054 5.46408 9.17054C6.06141 9.17054 6.54354 8.64875 6.53928 8.00229C6.53928 7.35582 6.05714 6.83404 5.45981 6.83865C4.88808 6.83865 4.41448 7.3235 4.38461 7.94226Z" fill="#0033AD"/>
<path d="M0.367291 7.64206C0.175291 7.62821 0.00889121 7.78983 0.000357876 7.99762C-0.00817546 8.20541 0.136891 8.3855 0.328891 8.39473C0.520891 8.40859 0.683024 8.24697 0.695825 8.03918C0.708624 7.83139 0.559291 7.65592 0.367291 7.64206Z" fill="#0033AD"/>
<path d="M4.31857 1.17279C4.48924 1.08044 4.5575 0.849559 4.47217 0.664855C4.38684 0.480151 4.1735 0.406269 4.00284 0.498621C3.83217 0.590973 3.7639 0.817236 3.84924 1.00194C3.93457 1.19126 4.14364 1.26976 4.31857 1.17279Z" fill="#0033AD"/>
<path d="M5.41065 3.23687C5.67518 3.09373 5.78185 2.74279 5.64958 2.4565C5.51731 2.17021 5.19305 2.05477 4.92851 2.19791C4.66398 2.34106 4.55731 2.69199 4.68958 2.97829C4.82185 3.26458 5.14611 3.38002 5.41065 3.23687Z" fill="#0033AD"/>
<path d="M1.7328 4.65446C1.9376 4.79761 2.21067 4.73758 2.3472 4.51593C2.47947 4.29429 2.424 3.99876 2.2192 3.851C2.0144 3.70785 1.74133 3.76788 1.6048 3.98953C1.46827 4.21117 1.528 4.51132 1.7328 4.65446Z" fill="#0033AD"/>
<path d="M2.38478 7.43433C2.08611 7.41586 1.83438 7.66059 1.81731 7.98382C1.80025 8.30706 2.02638 8.5795 2.32505 8.59797C2.62371 8.61644 2.87545 8.3717 2.89251 8.04847C2.90958 7.72986 2.68345 7.4528 2.38478 7.43433Z" fill="#0033AD"/>
<path d="M1.79083 11.3454C1.57323 11.4655 1.48363 11.7518 1.59456 11.9919C1.7055 12.2274 1.97003 12.3244 2.1919 12.2043C2.4095 12.0843 2.4991 11.798 2.38816 11.5578C2.27723 11.3223 2.00843 11.2254 1.79083 11.3454Z" fill="#0033AD"/>
<path d="M3.88122 6.22904C4.17562 6.43683 4.56816 6.3491 4.75589 6.03049C4.94789 5.71187 4.86682 5.28705 4.57242 5.08388C4.27802 4.87608 3.88549 4.96382 3.69776 5.28243C3.50576 5.59643 3.58682 6.02125 3.88122 6.22904Z" fill="#0033AD"/>
<path d="M10.518 3.19071C10.7654 3.36618 11.1025 3.29229 11.2646 3.02447C11.4268 2.75665 11.3585 2.39186 11.111 2.21639C10.8636 2.04092 10.5265 2.1148 10.3644 2.38263C10.198 2.65506 10.2662 3.01524 10.518 3.19071Z" fill="#0033AD"/>
<path d="M11.6177 1.13587C11.7798 1.25131 11.9931 1.20051 12.0998 1.02504C12.2065 0.849574 12.1595 0.618693 11.9974 0.503253C11.8353 0.387813 11.6219 0.438607 11.5153 0.609458C11.4129 0.784927 11.4598 1.02042 11.6177 1.13587Z" fill="#0033AD"/>
<path d="M10.5977 6.82934C10.0046 6.7924 9.4926 7.28648 9.46273 7.92833C9.4286 8.57017 9.88513 9.12429 10.4782 9.15661C10.4995 9.15661 10.5209 9.15661 10.5379 9.15661C11.131 9.15661 11.6131 8.63482 11.6131 7.98836C11.6174 7.37421 11.1694 6.86166 10.5977 6.82934Z" fill="#0033AD"/>
<path d="M5.76462 6.14604C5.94809 6.53854 6.31929 6.78789 6.72889 6.78789C7.32195 6.78789 7.80409 6.2661 7.80409 5.61963C7.80409 5.43955 7.76569 5.25946 7.68889 5.09323C7.42009 4.51603 6.77155 4.28515 6.24249 4.57605C5.70915 4.87158 5.49582 5.57346 5.76462 6.14604Z" fill="#0033AD"/>
<path d="M14.2099 4.65451C14.4275 4.53446 14.5128 4.24355 14.4019 4.00805C14.291 3.77255 14.0222 3.6802 13.8046 3.80026C13.587 3.92032 13.5016 4.20661 13.6083 4.4421C13.7235 4.6776 13.988 4.77457 14.2099 4.65451Z" fill="#0033AD"/>
<path d="M11.4782 5.0239C11.1668 5.19475 11.0388 5.60572 11.1966 5.9428C11.3545 6.27989 11.7342 6.41842 12.0457 6.24756C12.3572 6.07671 12.4852 5.66575 12.3273 5.32866C12.1694 4.99158 11.7897 4.85767 11.4782 5.0239Z" fill="#0033AD"/>
<path d="M7.95781 0.960412C8.20101 0.974265 8.41008 0.77109 8.42715 0.507887C8.44421 0.244683 8.25221 0.0184208 8.00901 -4.96259e-05C7.76581 -0.0139024 7.55675 0.184655 7.53968 0.447858C7.52688 0.715679 7.71461 0.941942 7.95781 0.960412Z" fill="#0033AD"/>
<path d="M7.95358 3.97576C8.30345 3.99885 8.60212 3.70794 8.61918 3.3293C8.64052 2.95065 8.37172 2.62742 8.02185 2.60895C7.67198 2.58586 7.37332 2.87677 7.35625 3.25542C7.33918 3.63406 7.60372 3.95729 7.95358 3.97576Z" fill="#0033AD"/>
<path d="M4.52225 10.976C4.83372 10.8052 4.96172 10.3942 4.80385 10.0571C4.64599 9.72004 4.26625 9.58151 3.95479 9.75237C3.64332 9.92322 3.51532 10.3342 3.67319 10.6713C3.83105 11.0084 4.21079 11.1469 4.52225 10.976Z" fill="#0033AD"/>
<path d="M8.36318 4.9777C8.03891 5.51796 8.17544 6.23831 8.67464 6.58924C9.17384 6.94018 9.83944 6.79242 10.1637 6.25216C10.488 5.7119 10.3514 4.99155 9.85224 4.64062C9.67731 4.51594 9.47251 4.45129 9.26344 4.45129C8.90078 4.45129 8.56371 4.64985 8.36318 4.9777Z" fill="#0033AD"/>
<path d="M10.2358 9.85397C9.96696 9.27677 9.31843 9.04589 8.78936 9.3368C8.25603 9.62771 8.04269 10.3296 8.31149 10.9022C8.58029 11.4794 9.22883 11.7102 9.75789 11.4193C10.287 11.133 10.5046 10.4404 10.24 9.8632C10.24 9.85859 10.24 9.85859 10.2358 9.85397Z" fill="#0033AD"/>
<path d="M12.1193 9.77077C11.8249 9.56297 11.4324 9.65071 11.2446 9.96932C11.0526 10.2879 11.1337 10.7128 11.4281 10.9159C11.7225 11.1237 12.115 11.036 12.3028 10.7174C12.4948 10.4034 12.4137 9.97856 12.1193 9.77077Z" fill="#0033AD"/>
<path d="M14.1816 8.02076C14.1986 7.69753 13.9725 7.42509 13.6738 7.40662C13.3752 7.38815 13.1234 7.63288 13.1064 7.95612C13.0893 8.27935 13.3154 8.55179 13.6141 8.57026C13.9085 8.58873 14.1645 8.33938 14.1816 8.02076Z" fill="#0033AD"/>
<path d="M15.672 7.6052C15.48 7.59135 15.3136 7.75296 15.305 7.96075C15.2965 8.16855 15.4416 8.34863 15.6336 8.35787C15.8256 8.37172 15.9877 8.2101 16.0005 8.00231C16.009 7.79452 15.864 7.61905 15.672 7.6052Z" fill="#0033AD"/>
<path d="M14.2681 11.3454C14.0633 11.2022 13.7902 11.2623 13.6537 11.4839C13.5214 11.7056 13.5769 12.0011 13.7817 12.1488C13.9865 12.292 14.2596 12.232 14.3961 12.0103C14.5326 11.7887 14.4729 11.4885 14.2681 11.3454Z" fill="#0033AD"/>
<path d="M4.37946 14.864C4.21733 14.7485 4.004 14.7993 3.89733 14.9702C3.79066 15.1456 3.8376 15.3765 3.99546 15.492C4.1576 15.6074 4.37093 15.5566 4.4776 15.3858C4.58853 15.2149 4.5416 14.9794 4.37946 14.864Z" fill="#0033AD"/>
<path d="M11.6825 14.8271C11.5119 14.9194 11.4436 15.1503 11.5289 15.335C11.6143 15.5197 11.8276 15.5936 11.9983 15.5012C12.1689 15.4089 12.2372 15.1826 12.1519 14.9979C12.0665 14.8086 11.8575 14.7301 11.6825 14.8271Z" fill="#0033AD"/>
<path d="M7.63861 11.0222C7.96287 10.482 7.82634 9.76162 7.32714 9.40607C6.82794 9.05513 6.16234 9.20289 5.83381 9.74315C5.50528 10.2834 5.64608 11.0038 6.14528 11.3593C6.32021 11.484 6.52501 11.5486 6.73408 11.5486C7.10101 11.5533 7.43807 11.3547 7.63861 11.0222Z" fill="#0033AD"/>
<path d="M5.48305 12.8092C5.23558 12.6337 4.89851 12.7076 4.73638 12.9754C4.57425 13.2432 4.64251 13.608 4.88998 13.7835C5.13745 13.9589 5.47451 13.8851 5.63665 13.6172C5.80305 13.3494 5.73478 12.9846 5.48305 12.8092Z" fill="#0033AD"/>
<path d="M7.99773 15.0395C7.75453 15.0256 7.54547 15.2288 7.5284 15.492C7.51133 15.7552 7.70333 15.9815 7.94653 15.9999C8.18973 16.0138 8.3988 15.8152 8.41587 15.552C8.42867 15.2842 8.24093 15.058 7.99773 15.0395Z" fill="#0033AD"/>
<path d="M7.99882 12.0242C7.64895 12.0011 7.35028 12.2921 7.33322 12.6707C7.31188 13.0493 7.58069 13.3726 7.93055 13.391C8.28042 13.4095 8.57909 13.1232 8.59615 12.7446C8.61749 12.3706 8.34869 12.0427 7.99882 12.0242Z" fill="#0033AD"/>
<path d="M10.5911 12.763C10.3265 12.9108 10.2199 13.2617 10.3564 13.548C10.4929 13.8343 10.8172 13.9498 11.0817 13.802C11.3463 13.6589 11.4529 13.3079 11.3207 13.0216C11.1841 12.7353 10.8599 12.6153 10.5911 12.763Z" fill="#0033AD"/>
</g>
<defs>
<clipPath id="clip0_217_17602">
<rect width="16" height="16" fill="white"/>
</clipPath>
</defs>
</svg>
