<svg width="16" height="17" viewBox="0 0 16 17" fill="none" xmlns="http://www.w3.org/2000/svg">
<path d="M12.0833 5.45829C11.7917 5.29163 11.4167 5.29163 11.0833 5.45829L8.75 6.83329L7.16667 7.70829L4.875 9.08329C4.58333 9.24996 4.20833 9.24996 3.875 9.08329L2.08333 7.99996C1.79167 7.83329 1.58333 7.49996 1.58333 7.12496V5.04163C1.58333 4.70829 1.75 4.37496 2.08333 4.16663L3.875 3.12496C4.16667 2.95829 4.54167 2.95829 4.875 3.12496L6.66667 4.20829C6.95833 4.37496 7.16667 4.70829 7.16667 5.08329V6.45829L8.75 5.54163V4.12496C8.75 3.79163 8.58333 3.45829 8.25 3.24996L4.91667 1.29163C4.625 1.12496 4.25 1.12496 3.91667 1.29163L0.5 3.29163C0.166667 3.45829 0 3.79163 0 4.12496V8.04163C0 8.37496 0.166667 8.70829 0.5 8.91663L3.875 10.875C4.16667 11.0416 4.54167 11.0416 4.875 10.875L7.16667 9.54163L8.75 8.62496L11.0417 7.29163C11.3333 7.12496 11.7083 7.12496 12.0417 7.29163L13.8333 8.33329C14.125 8.49996 14.3333 8.83329 14.3333 9.20829V11.2916C14.3333 11.625 14.1667 11.9583 13.8333 12.1666L12.0833 13.2083C11.7917 13.375 11.4167 13.375 11.0833 13.2083L9.29167 12.1666C9 12 8.79167 11.6666 8.79167 11.2916V9.95829L7.20833 10.875V12.25C7.20833 12.5833 7.375 12.9166 7.70833 13.125L11.0833 15.0833C11.375 15.25 11.75 15.25 12.0833 15.0833L15.4583 13.125C15.75 12.9583 15.9583 12.625 15.9583 12.25V8.29163C15.9583 7.95829 15.7917 7.62496 15.4583 7.41663L12.0833 5.45829Z" fill="#8247E5"/>
</svg>
