<svg width="17" height="16" viewBox="0 0 17 16" fill="none" xmlns="http://www.w3.org/2000/svg">
<path d="M12.8356 0.817778L9.49333 5.77778C9.26222 6.11556 9.70667 6.52444 10.0267 6.24L13.3156 3.37778C13.4044 3.30667 13.5289 3.36 13.5289 3.48444V12.4267C13.5289 12.5511 13.3689 12.6044 13.2978 12.5156L3.34222 0.604444C3.02222 0.213333 2.56 0 2.04444 0H1.68889C0.764444 0 0 0.764444 0 1.70667V14.2933C0 15.2356 0.764444 16 1.70667 16C2.29333 16 2.84444 15.6978 3.16444 15.1822L6.50667 10.2222C6.73778 9.88444 6.29333 9.47556 5.97333 9.76L2.68444 12.6044C2.59556 12.6756 2.47111 12.6222 2.47111 12.4978V3.57333C2.47111 3.44889 2.63111 3.39556 2.70222 3.48444L12.6578 15.3956C12.9778 15.7867 13.4578 16 13.9556 16H14.3111C15.2533 16 16.0178 15.2356 16.0178 14.2933V1.70667C16.0178 0.764444 15.2533 0 14.3111 0C13.7067 0 13.1556 0.302222 12.8356 0.817778Z" fill="black"/>
</svg>
