<svg width="26" height="25" viewBox="0 0 26 25" fill="none" xmlns="http://www.w3.org/2000/svg">
<path d="M15.0789 6.95028L12.9991 9.03009L10.9193 6.95028L12.9991 4.87047L15.0789 6.95028ZM16.6701 6.95028L12.9991 3.2793L9.32812 6.95028L12.9991 10.6338L16.6701 6.95028Z" fill="white"/>
<path d="M20.6305 12.5011L18.5507 14.5809L16.4709 12.5011L18.5507 10.4213L20.6305 12.5011ZM22.2217 12.5011L18.5507 8.83008L14.8672 12.5011L18.5382 16.172L22.2217 12.5011Z" fill="white"/>
<path d="M9.53204 12.5011L7.45223 14.5809L5.37243 12.5011L7.45223 10.4213L9.53204 12.5011ZM11.1357 12.5011L7.45223 8.83008L3.78125 12.5011L7.45223 16.172L11.1357 12.5011Z" fill="white"/>
<path d="M15.0789 18.0507L12.9991 20.1305L10.9193 18.0507L12.9991 15.9709L15.0789 18.0507ZM16.6701 18.0507L12.9991 14.3672L9.32812 18.0382L12.9991 21.7217L16.6701 18.0507Z" fill="white"/>
<path d="M18.0154 16.7106L13.8056 12.5008L18.0154 8.29111L17.2135 7.48926L13.0038 11.699L8.79404 7.48926L7.99219 8.29111L12.2019 12.5008L7.99219 16.7106L8.79404 17.5124L13.0038 13.3027L17.2135 17.5124L18.0154 16.7106Z" fill="white"/>
</svg>
