<svg width="16" height="17" viewBox="0 0 16 17" fill="none" xmlns="http://www.w3.org/2000/svg">
<path d="M12.0026 5.83333L11.3359 6.27778V6.27778C10.7979 6.63645 10.5289 6.81578 10.264 6.95014C8.84255 7.67095 7.16265 7.67095 5.74123 6.95014C5.47628 6.81578 5.20728 6.63645 4.66927 6.27778V6.27778L4.0026 5.83333M7.33593 14.5H8.66927C9.59828 14.5 10.0628 14.5 10.4514 14.4384C12.5909 14.0996 14.2689 12.4216 14.6077 10.2822C14.6693 9.89351 14.6693 9.42901 14.6693 8.5V8.5C14.6693 7.57099 14.6693 7.10649 14.6077 6.71783C14.2689 4.57837 12.5909 2.90042 10.4514 2.56156C10.0628 2.5 9.59828 2.5 8.66927 2.5H7.33594C6.40693 2.5 5.94243 2.5 5.55377 2.56156C3.4143 2.90042 1.73635 4.57837 1.3975 6.71783C1.33594 7.10649 1.33594 7.57099 1.33594 8.5V8.5C1.33594 9.42901 1.33594 9.89351 1.3975 10.2822C1.73635 12.4216 3.4143 14.0996 5.55377 14.4384C5.94243 14.5 6.40693 14.5 7.33593 14.5Z" stroke="white" stroke-width="1.5" stroke-linecap="round"/>
</svg>
