<svg width="16" height="17" viewBox="0 0 16 17" fill="none" xmlns="http://www.w3.org/2000/svg">
<g clip-path="url(#clip0_890_9689)">
<path d="M7.33073 9.1665V9.1665C8.27673 11.6262 8.74972 12.8561 9.35465 13.2101C10.0371 13.6095 10.8909 13.5693 11.5328 13.1075C12.1018 12.6982 12.4571 11.4293 13.1676 8.89155L13.7968 6.64474C14.2984 4.85322 14.5492 3.95746 14.3164 3.34278C14.1135 2.80686 13.6904 2.38374 13.1544 2.18077C12.5398 1.94797 11.644 2.19879 9.85248 2.70041L7.60575 3.3295C5.06791 4.04009 3.79898 4.39539 3.38966 4.9644C2.92791 5.60629 2.88769 6.45996 3.28704 7.14242C3.64105 7.7474 4.87094 8.22043 7.33073 9.1665V9.1665ZM7.33073 9.1665L8.9974 7.49984" stroke="white" stroke-width="1.5" stroke-linecap="round" stroke-linejoin="round"/>
</g>
<defs>
<clipPath id="clip0_890_9689">
<rect width="16" height="16" fill="white" transform="translate(0 0.5)"/>
</clipPath>
</defs>
</svg>
