<svg width="16" height="15" viewBox="0 0 16 15" fill="none" xmlns="http://www.w3.org/2000/svg">
<path d="M2.66927 2.8335L3.0619 9.50822C3.11103 10.3433 3.13559 10.7609 3.22047 11.1105C3.59363 12.6476 4.83745 13.8204 6.39375 14.1026C6.74777 14.1668 7.16605 14.1668 8.0026 14.1668V14.1668C8.83916 14.1668 9.25744 14.1668 9.61145 14.1026C11.1678 13.8204 12.4116 12.6476 12.7847 11.1105C12.8696 10.7609 12.8942 10.3433 12.9433 9.50822L13.3359 2.8335M2.66927 2.8335H1.33594M2.66927 2.8335H13.3359M13.3359 2.8335H14.6693M10.6693 2.8335L10.5496 2.47455C10.3529 1.88443 10.2546 1.58938 10.0721 1.37123C9.91104 1.1786 9.70417 1.02949 9.47047 0.937577C9.20584 0.833496 8.89482 0.833496 8.27278 0.833496H7.73243C7.11039 0.833496 6.79937 0.833496 6.53473 0.937577C6.30104 1.02949 6.09416 1.1786 5.93307 1.37123C5.75064 1.58938 5.65229 1.88443 5.45559 2.47455L5.33594 2.8335" stroke="white" stroke-width="1.5" stroke-linecap="round" stroke-linejoin="round"/>
</svg>
